<svg xmlns="http://www.w3.org/2000/svg" viewBox="0 0 318.06 318.06"><g id="Layer_2" data-name="Layer 2"><g id="Layer_1-2" data-name="Layer 1"><path d="M5.24,115.91a2.76,2.76,0,0,1-2.74-2.74V2.51H113.15a2.74,2.74,0,1,1,0,5.48H8V113.17A2.74,2.74,0,0,1,5.24,115.91Z" style="stroke:#000;stroke-miterlimit:10;stroke-width:5px"/><path d="M113.15,315.55H2.5V204.89a2.74,2.74,0,0,1,5.48,0V310.08H113.17a2.74,2.74,0,0,1,0,5.48Z" style="stroke:#000;stroke-miterlimit:10;stroke-width:5px"/><path d="M312.8,115.91a2.75,2.75,0,0,1-2.74-2.74V8H204.88a2.74,2.74,0,1,1,0-5.48H315.54V113.17A2.74,2.74,0,0,1,312.8,115.91Z" style="stroke:#000;stroke-miterlimit:10;stroke-width:5px"/><path d="M315.54,315.55H204.89a2.75,2.75,0,0,1,0-5.49H310.07V204.88a2.75,2.75,0,0,1,5.49,0Z" style="stroke:#000;stroke-miterlimit:10;stroke-width:5px"/><path d="M159.06,195.85a38.77,38.77,0,1,0,38.77,38.77A38.76,38.76,0,0,0,159.06,195.85Zm-5.48,57L135.3,234.62l7.31-7.32,11,11,21.91-21.94,7.31,7.31Z" style="fill:#00a651"/><path d="M233.54,182.58a19.91,19.91,0,0,0,0-28.15h0a104.94,104.94,0,0,0-148.24,0,19.91,19.91,0,0,0,28.15,28.16,65.12,65.12,0,0,1,91.94,0,19.89,19.89,0,0,0,28.13,0Z"/><path d="M61.47,131.23a138.37,138.37,0,0,1,195.7-.2l.2.2a19.92,19.92,0,1,0,28.15-28.18,178.27,178.27,0,0,0-252.12-.12l-.11.12a19.93,19.93,0,0,0,28.18,28.18Z"/></g></g></svg>