<svg xmlns="http://www.w3.org/2000/svg" viewBox="0 0 1408.99 318.06"><g id="Layer_2" data-name="Layer 2"><g id="Layer_1-2" data-name="Layer 1"><path d="M5.24,115.91a2.76,2.76,0,0,1-2.74-2.74V2.51H113.15a2.74,2.74,0,1,1,0,5.48H8V113.17A2.74,2.74,0,0,1,5.24,115.91Z" style="stroke:#000;stroke-miterlimit:10;stroke-width:5px"/><path d="M113.15,315.55H2.5V204.89a2.74,2.74,0,0,1,5.48,0V310.08H113.17a2.74,2.74,0,0,1,0,5.48Z" style="stroke:#000;stroke-miterlimit:10;stroke-width:5px"/><path d="M312.8,115.91a2.75,2.75,0,0,1-2.74-2.74V8H204.88a2.74,2.74,0,1,1,0-5.48H315.54V113.17A2.74,2.74,0,0,1,312.8,115.91Z" style="stroke:#000;stroke-miterlimit:10;stroke-width:5px"/><path d="M315.54,315.55H204.89a2.75,2.75,0,0,1,0-5.49H310.07V204.88a2.75,2.75,0,0,1,5.49,0Z" style="stroke:#000;stroke-miterlimit:10;stroke-width:5px"/><path d="M159.06,195.85a38.77,38.77,0,1,0,38.77,38.77A38.76,38.76,0,0,0,159.06,195.85Zm-5.48,57L135.3,234.62l7.31-7.32,11,11,21.91-21.94,7.31,7.31Z" style="fill:#00a651"/><path d="M233.54,182.58a19.91,19.91,0,0,0,0-28.15h0a104.94,104.94,0,0,0-148.24,0,19.91,19.91,0,0,0,28.15,28.16,65.12,65.12,0,0,1,91.94,0,19.89,19.89,0,0,0,28.13,0Z"/><path d="M61.47,131.23a138.37,138.37,0,0,1,195.7-.2l.2.2a19.92,19.92,0,1,0,28.15-28.18,178.27,178.27,0,0,0-252.12-.12l-.11.12a19.93,19.93,0,0,0,28.18,28.18Z"/><path d="M383.51,283.45V55.25h78.05q23.79,0,42.87,5.08t30.1,17.5q11,12.42,11,34.12,0,17.16-7.7,30.63a40.94,40.94,0,0,1-22.05,18.72v1.4q19.25,4.2,30.1,16.63t10.85,34.47q0,24.15-11.9,39.55t-32,22.75q-20.13,7.35-44.62,7.35ZM435,146.6h24.15q18.9,0,27.47-7.35t8.58-19.6q0-13.29-8.75-18.9t-27-5.6H435Zm0,97H464q21,0,31.67-7.52t10.68-23.28q0-14.7-10.68-21.35T464,184.75H435Z"/><path d="M643.21,287.65q-28.35,0-41.13-18.72t-12.77-51.28V109.85h51.45V211q0,18.9,5.25,25.9t16.45,7a29.46,29.46,0,0,0,16.45-4.55q7-4.54,14.35-14.7V109.85h51.45v173.6h-42l-3.85-24.15h-1.05A93.5,93.5,0,0,1,674,280Q661.05,287.65,643.21,287.65Z"/><path d="M813.3,283.45,772,55.25h53.55l15.05,106.4q2.45,18.21,4.73,36.23t4,36.92h1.4q3.15-18.9,6.48-37.1t6.82-36L888.2,55.25h45.85l23.1,106.4q3.5,17.5,7,35.88t6.65,37.27h1.4q1.75-18.9,4-37.1t4.37-36l16.1-106.4h50.4l-40.95,228.2h-66.5L918.3,179.85q-2.44-12.94-4.55-26.6T909.9,126h-1.4q-1.75,13.65-3.67,27.3t-4.73,26.6l-21.35,103.6Z"/><path d="M1100,84.3q-13,0-21-7.35t-8-19.6q0-12.24,8-19.6t21-7.35q12.94,0,21,7.35t8,19.6q0,12.25-8,19.6T1100,84.3ZM1074.4,283.45V109.85h51.45v173.6Z"/><path d="M1175.19,283.45V55.25H1319v43.4h-92.4V151.5h79.1v43.4h-79.1v88.55Z"/><path d="M1379.94,84.3q-12.95,0-21-7.35t-8-19.6q0-12.24,8-19.6t21-7.35q12.94,0,21,7.35t8,19.6q0,12.25-8,19.6T1379.94,84.3Zm-25.55,199.15V109.85h51.45v173.6Z"/></g></g></svg>